<?xml version="1.0" encoding="utf-8"?>
<!-- Generator: Adobe Illustrator 19.0.1, SVG Export Plug-In . SVG Version: 6.00 Build 0)  -->
<svg version="1.1" id="Layer_1" xmlns="http://www.w3.org/2000/svg" xmlns:xlink="http://www.w3.org/1999/xlink" x="0px" y="0px"
	 viewBox="0 0 200 43" style="enable-background:new 0 0 200 43;" xml:space="preserve">
<style type="text/css">
	.st0{fill:#F8F9F9;}
</style>
<g>
	<g>
		<polygon class="st0" points="79.628,15.886 68.8,15.886 68.8,18.395 72.742,18.395 72.742,28.959 75.685,28.959 75.685,18.395 
			79.628,18.395 		"/>
		<path class="st0" d="M89.189,21.678c-0.423-1.056-0.844-2.059-1.26-3.009c-0.417-0.949-0.84-1.877-1.27-2.782h-2.79
			c-0.442,0.905-0.868,1.833-1.278,2.782c-0.41,0.95-0.826,1.953-1.249,3.009c-0.422,1.056-0.854,2.182-1.296,3.377
			c-0.441,1.195-0.908,2.496-1.4,3.905h3.056c0.143-0.451,0.297-0.916,0.463-1.396c0.166-0.479,0.331-0.957,0.497-1.434h5.106
			c0.166,0.474,0.333,0.951,0.5,1.43c0.168,0.479,0.324,0.945,0.469,1.4h3.152c-0.493-1.408-0.961-2.71-1.403-3.905
			S89.613,22.734,89.189,21.678z M83.332,23.79c0.206-0.565,0.409-1.105,0.608-1.62c0.2-0.515,0.38-0.987,0.542-1.415
			c0.161-0.428,0.305-0.806,0.432-1.133c0.127-0.326,0.223-0.585,0.288-0.775c0.078,0.186,0.181,0.442,0.308,0.768
			c0.127,0.326,0.275,0.704,0.444,1.132c0.169,0.429,0.347,0.901,0.535,1.418c0.187,0.516,0.381,1.058,0.581,1.625H83.332z"/>
		<path class="st0" d="M107.462,22.158c-0.082-1.163-0.176-2.283-0.283-3.358c-0.107-1.075-0.223-2.047-0.349-2.915h-2.679
			c-0.227,0.415-0.489,0.927-0.785,1.537c-0.296,0.61-0.605,1.27-0.927,1.981c-0.322,0.711-0.64,1.437-0.955,2.179
			c-0.315,0.742-0.611,1.44-0.889,2.094c-0.278-0.654-0.574-1.352-0.889-2.094c-0.315-0.742-0.634-1.468-0.955-2.179
			c-0.322-0.711-0.63-1.371-0.926-1.981c-0.296-0.61-0.558-1.122-0.785-1.537h-2.811c-0.126,0.868-0.242,1.839-0.349,2.915
			c-0.107,1.075-0.201,2.195-0.283,3.358c-0.082,1.163-0.157,2.33-0.226,3.499c-0.069,1.17-0.129,2.27-0.179,3.301h2.868
			c0.038-1.27,0.088-2.653,0.151-4.15c0.063-1.496,0.157-3.006,0.283-4.527c0.227,0.528,0.479,1.113,0.757,1.754
			c0.277,0.641,0.552,1.283,0.823,1.924c0.271,0.641,0.533,1.254,0.786,1.839c0.252,0.585,0.467,1.085,0.643,1.5h2.056
			c0.177-0.415,0.391-0.915,0.643-1.5c0.252-0.585,0.514-1.198,0.785-1.839c0.271-0.641,0.546-1.283,0.823-1.924
			c0.277-0.641,0.53-1.226,0.757-1.754c0.126,1.522,0.22,3.031,0.283,4.527c0.063,1.497,0.113,2.88,0.151,4.15h2.868
			c-0.05-1.031-0.11-2.132-0.179-3.301C107.619,24.488,107.544,23.322,107.462,22.158z"/>
		<path class="st0" d="M119.712,21.678c-0.423-1.056-0.844-2.059-1.26-3.009c-0.417-0.949-0.84-1.877-1.27-2.782h-2.79
			c-0.442,0.905-0.868,1.833-1.278,2.782c-0.41,0.95-0.826,1.953-1.249,3.009c-0.422,1.056-0.854,2.182-1.296,3.377
			c-0.441,1.195-0.908,2.496-1.4,3.905h3.056c0.143-0.451,0.297-0.916,0.463-1.396c0.166-0.479,0.331-0.957,0.497-1.434h5.106
			c0.166,0.474,0.333,0.951,0.5,1.43c0.168,0.479,0.324,0.945,0.469,1.4h3.152c-0.493-1.408-0.961-2.71-1.403-3.905
			S120.135,22.734,119.712,21.678z M113.854,23.79c0.206-0.565,0.409-1.105,0.608-1.62c0.2-0.515,0.38-0.987,0.542-1.415
			c0.161-0.428,0.305-0.806,0.432-1.133c0.127-0.326,0.223-0.585,0.288-0.775c0.078,0.186,0.181,0.442,0.308,0.768
			c0.127,0.326,0.275,0.704,0.444,1.132c0.169,0.429,0.347,0.901,0.535,1.418c0.187,0.516,0.381,1.058,0.581,1.625H113.854z"/>
		<path class="st0" d="M129.467,21.894c0.994-0.99,1.942-1.974,2.842-2.952s1.796-1.997,2.685-3.056h-3.492
			c-0.661,0.746-1.382,1.552-2.162,2.42c-0.781,0.868-1.549,1.699-2.306,2.494v-4.913h-2.943v13.073h2.943v-5.537
			c0.454,0.353,0.907,0.76,1.361,1.22c0.454,0.46,0.888,0.941,1.304,1.443c0.415,0.502,0.803,1,1.162,1.494
			c0.359,0.494,0.672,0.954,0.937,1.379h3.499c-0.897-1.443-1.831-2.763-2.803-3.96C131.522,23.801,130.513,22.767,129.467,21.894z"
			/>
		<rect x="136.994" y="15.886" class="st0" width="2.943" height="13.073"/>
		<polygon class="st0" points="155.367,20.885 150.425,20.885 150.425,15.886 147.482,15.886 147.482,28.959 150.425,28.959 
			150.425,23.413 155.367,23.413 155.367,28.959 158.31,28.959 158.31,15.886 155.367,15.886 		"/>
		<rect x="161.328" y="15.886" class="st0" width="2.943" height="13.073"/>
		<path class="st0" d="M172.666,21.894c0.994-0.99,1.942-1.974,2.842-2.952s1.796-1.997,2.685-3.056H174.7
			c-0.661,0.746-1.382,1.552-2.162,2.42c-0.781,0.868-1.549,1.699-2.306,2.494v-4.913h-2.943v13.073h2.943v-5.537
			c0.454,0.353,0.907,0.76,1.361,1.22c0.454,0.46,0.888,0.941,1.304,1.443c0.415,0.502,0.803,1,1.162,1.494
			c0.359,0.494,0.672,0.954,0.937,1.379h3.499c-0.897-1.443-1.831-2.763-2.803-3.96C174.72,23.801,173.711,22.767,172.666,21.894z"
			/>
		<path class="st0" d="M189.7,17.32c-0.591-0.578-1.283-1.012-2.075-1.302c-0.792-0.289-1.635-0.434-2.528-0.434
			c-0.868,0-1.695,0.145-2.48,0.434c-0.786,0.289-1.478,0.723-2.075,1.302c-0.598,0.579-1.072,1.292-1.424,2.141
			c-0.352,0.849-0.528,1.833-0.528,2.952c0,1.119,0.17,2.103,0.51,2.952c0.339,0.849,0.805,1.559,1.396,2.132
			c0.591,0.573,1.283,1.003,2.075,1.292c0.792,0.289,1.635,0.434,2.528,0.434c0.918,0,1.776-0.145,2.575-0.434
			c0.799-0.289,1.487-0.72,2.066-1.292c0.578-0.572,1.034-1.283,1.368-2.132c0.333-0.849,0.5-1.833,0.5-2.952
			c0-1.119-0.17-2.103-0.509-2.952C190.756,18.612,190.291,17.898,189.7,17.32z M188.332,24.149
			c-0.158,0.516-0.384,0.959-0.679,1.33c-0.296,0.371-0.66,0.657-1.094,0.858c-0.434,0.201-0.921,0.302-1.462,0.302
			c-0.553,0-1.044-0.1-1.471-0.302c-0.428-0.201-0.789-0.487-1.085-0.858s-0.522-0.814-0.679-1.33
			c-0.158-0.515-0.236-1.094-0.236-1.735c0-0.629,0.078-1.204,0.236-1.726c0.157-0.522,0.384-0.968,0.679-1.34
			c0.296-0.371,0.657-0.66,1.085-0.868c0.427-0.208,0.918-0.311,1.471-0.311c0.541,0,1.028,0.101,1.462,0.302
			c0.434,0.201,0.799,0.488,1.094,0.858c0.296,0.371,0.522,0.818,0.679,1.34c0.157,0.522,0.236,1.103,0.236,1.745
			S188.489,23.633,188.332,24.149z"/>
		<rect x="194.057" y="15.886" class="st0" width="2.943" height="13.073"/>
		<rect x="81.889" y="12.545" class="st0" width="6.647" height="1.737"/>
	</g>
	<g>
		<path class="st0" d="M22.061,4.245c0-2.025-1.641-3.666-3.666-3.666h-5.716v13.843h9.382V4.245z"/>
		<path class="st0" d="M29.107,15.917H6.67c-2.027,0-3.67,1.643-3.67,3.67v5.712h9.679v13.839c0,2.026,1.642,3.668,3.668,3.668
			h5.715V25.299h8.421v-8.007C30.482,16.532,29.866,15.917,29.107,15.917z"/>
		<path class="st0" d="M41.313,21.47h8.786c10.325,0,11.419-3.457,11.419-6l0.001-1.592c0-0.17-0.209-0.248-0.321-0.12
			c-1.216,1.386-4.466,2.14-10.708,2.14l-17.557-0.007c-0.546,0-0.989,0.443-0.989,0.989l0.002,18.389c0,0,5.462,0,13.925,0
			c7.781,0,11.137-5.422,11.634-6.766c0.078-0.21-0.121-0.319-0.249-0.236c-0.496,0.319-2.223,1.485-6.207,1.485H37.369
			c0-0.592,0.651-1.456,1.243-1.456h11.847c7.141,0,10.17-3.833,10.445-7.64c0.012-0.172-0.195-0.265-0.315-0.141
			c-0.85,0.883-3.496,2.411-9.968,2.411H39.966C39.966,22.436,40.49,21.47,41.313,21.47z"/>
		<path class="st0" d="M33.321,14.422h8.003V3.86c0-2.025-1.641-3.666-3.666-3.666h-5.717v12.849
			C31.942,13.805,32.56,14.422,33.321,14.422z"/>
	</g>
</g>
</svg>
